<svg width="320" height="320" viewBox="0 0 320 320" fill="none" xmlns="http://www.w3.org/2000/svg">
<circle cx="160" cy="160" r="160" fill="#F17101"/>
<path d="M146.271 279.17L158.856 280.241L157.151 300.269L145.135 299.246C141.04 298.897 138.975 296.975 139.242 293.837C139.453 291.356 140.921 289.674 144.29 289.72L144.312 289.451C140.629 288.866 138.993 286.861 139.222 284.17C139.512 280.763 141.788 278.788 146.271 279.17ZM153.011 295.852L153.344 291.936L146.32 291.338C144.676 291.198 143.94 291.707 143.823 293.083C143.706 294.458 144.372 295.116 146.046 295.259L153.011 295.852ZM153.66 288.229L154.029 283.895L146.466 283.251C144.643 283.096 143.847 283.6 143.71 285.215C143.575 286.799 144.274 287.43 146.097 287.586L153.66 288.229Z" fill="white"/>
<path d="M132.347 276.321C136.441 277.387 137.728 280.419 136.881 283.671L134.523 292.729L130.168 291.595L132.149 283.989C132.761 281.637 132.031 280.393 129.273 279.675C126.428 278.934 125.124 279.773 124.482 282.24L122.562 289.615L118.207 288.481L121.994 273.936L126.059 274.994L124.902 279.436L125.134 279.496C126.147 277.156 128.515 275.324 132.347 276.321Z" fill="white"/>
<path d="M117.271 266.528L119.513 267.542L117.832 271.26L114.47 269.74C113.458 269.282 112.897 269.358 112.352 269.836L112.834 286.614L108.187 284.513L108.119 276.943L108.429 273.198L108.155 273.075L105.591 275.834L100.177 280.893L95.6118 278.829L109.027 267.214C111.637 264.936 113.827 264.971 117.271 266.528Z" fill="white"/>
<path d="M76.9691 246.174L83.9649 252.879L70.0569 267.39L63.0612 260.685C58.4045 256.222 58.0537 250.692 62.4129 246.143C66.7722 241.595 72.3125 241.711 76.9691 246.174ZM65.8635 257.761L69.6105 261.352L77.9137 252.689L74.1668 249.098C71.2212 246.275 69.2204 245.978 65.8783 249.465C62.5363 252.952 62.9179 254.938 65.8635 257.761Z" fill="white"/>
<path d="M64.2168 231.167C68.1771 236.521 67.3586 242.276 62.3175 246.004C57.2764 249.733 51.5344 248.83 47.5741 243.476C43.5246 238 44.361 232.27 49.4021 228.541C54.4431 224.813 60.1674 225.691 64.2168 231.167ZM60.7436 233.735C58.1212 230.19 55.8502 229.743 52.2563 232.401C48.6624 235.059 48.425 237.361 51.0474 240.907C53.6697 244.452 55.8872 244.827 59.4811 242.169C63.075 239.511 63.3659 237.281 60.7436 233.735Z" fill="white"/>
<path d="M48.7198 204.946L57.2016 221.769L53.5852 223.592L37.8434 218.291L37.5487 218.44L42.7486 228.753L39.1322 230.577L30.88 214.209L34.4963 212.386L50.4138 218.035L50.7084 217.886L45.1034 206.769L48.7198 204.946Z" fill="white"/>
<path d="M42.7185 185.42L48.2353 203.434L44.3628 204.62L29.7431 196.736L29.4276 196.832L32.8097 207.876L28.9372 209.062L23.5698 191.535L27.4423 190.349L42.1761 198.607L42.4916 198.51L38.846 186.606L42.7185 185.42Z" fill="white"/>
<path d="M40.2819 166.554L42.4424 183.426L22.5052 185.979L20.3447 169.107L24.3619 168.592L25.9509 181.001L29.849 180.502L28.3172 168.54L32.3046 168.029L33.8365 179.991L37.8537 179.477L36.2647 167.068L40.2819 166.554Z" fill="white"/>
<path d="M40.3504 158.865L40.1594 163.361L20.0775 162.508L20.5486 151.418C20.7587 146.472 23.0664 143.748 26.9029 143.911C30.17 144.05 32.038 146.021 32.2372 149.813L32.477 149.823C33.033 148.045 34.0214 147.396 35.462 146.707L40.9806 144.028L40.7591 149.244L35.4266 151.78C33.8337 152.523 33.2923 153.25 33.193 155.588L33.0669 158.556L40.3504 158.865ZM24.3148 158.184L29.68 158.412L29.9588 151.848C30.0492 149.72 29.4905 148.735 27.3924 148.646C25.4142 148.562 24.6841 149.492 24.5937 151.62L24.3148 158.184Z" fill="white"/>
<path d="M51.4182 109.331L50.0312 112.783C48.7224 116.04 46.3972 117.401 42.8898 115.992L37.4338 113.799L36.5501 115.998L33.0984 114.611L33.9821 112.412L31.2819 111.327L32.9598 107.152L35.6599 108.237L37.472 103.727L40.9238 105.114L39.1117 109.624L44.0944 111.626C45.4863 112.185 46.0607 111.802 46.6535 110.326L47.6602 107.821L51.4182 109.331Z" fill="white"/>
<path d="M58.8269 96.6104C56.1372 100.979 51.7227 102.312 47.6865 99.8269C43.5991 97.3102 42.8278 92.7838 45.5175 88.4154C48.2072 84.0471 52.5962 82.698 56.6836 85.2146C60.7198 87.6999 61.5166 92.242 58.8269 96.6104ZM55.4293 94.5184C57.018 91.9382 56.588 90.4051 54.3399 89.021C52.0919 87.6368 50.4782 87.9116 48.8896 90.4917C47.2852 93.0974 47.7821 94.6364 50.0301 96.0205C52.2781 97.4047 53.825 97.124 55.4293 94.5184Z" fill="white"/>
<path d="M68.5224 82.6994L65.5493 86.0774L50.4608 72.7979L53.4339 69.4198L61.4285 76.456L63.688 73.8887L62.0363 67.3196L65.5643 63.311L67.3871 72.2287L76.7874 73.3085L73.2792 77.2946L66.7256 76.5221L64.4462 79.1119L68.5224 82.6994Z" fill="white"/>
<path d="M85.3649 66.6706C81.4669 69.818 77.2606 70.0525 73.9059 65.8978C70.8905 62.1632 71.6245 57.6761 75.4758 54.5664C79.3037 51.4756 83.4687 51.4286 86.4276 55.0932C86.7669 55.5133 86.9652 55.8544 87.2389 56.2889L77.7157 63.9783C79.2603 65.7002 80.7225 65.792 82.9866 63.9639C85.064 62.2865 85.3541 61.1654 84.5437 60.1618L84.3552 59.9284L87.8564 57.1014L88.0637 57.3581C90.1179 59.9023 89.0761 63.674 85.3649 66.6706ZM77.6108 57.3539C75.5335 59.0312 75.2119 60.4476 76.2736 62.0967L82.4823 57.0835C81.145 55.6184 79.6648 55.6954 77.6108 57.3539Z" fill="white"/>
<path d="M99.1932 56.6655L95.2647 58.8601L87.9346 45.7387L91.5751 43.705L93.8282 47.7383L94.064 47.6066C93.1754 45.2164 93.5764 42.2434 97.0073 40.3267C100.595 38.3223 103.585 39.676 105.209 42.5832L109.774 50.7546L105.846 52.9492L102.012 46.0873C100.842 43.9921 99.4801 43.5844 97.0706 44.9305C94.5825 46.3204 94.248 47.8131 95.4916 50.0393L99.1932 56.6655Z" fill="white"/>
<path d="M139.809 35.9161C137.473 36.3167 135.248 35.0546 134.786 32.3639C134.325 29.6731 136.002 27.7418 138.338 27.3413C140.704 26.9357 142.9 28.2028 143.361 30.8936C143.822 33.5843 142.174 35.5105 139.809 35.9161Z" fill="white"/>
<path d="M184.642 42.3163L172.194 40.1818L175.591 20.3709L187.477 22.4091C191.528 23.1037 193.422 25.1938 192.89 28.2985C192.469 30.7527 190.864 32.3037 187.512 31.9724L187.466 32.2385C191.087 33.1333 192.547 35.2708 192.09 37.9319C191.512 41.3028 189.078 43.0768 184.642 42.3163ZM179.342 25.1232L178.678 28.9966L185.626 30.1881C187.252 30.4669 188.029 30.0218 188.262 28.6616C188.495 27.3015 187.887 26.5884 186.231 26.3045L179.342 25.1232ZM178.049 32.6631L177.314 36.9506L184.794 38.2333C186.598 38.5425 187.434 38.1075 187.707 36.5108C187.976 34.9437 187.333 34.2551 185.53 33.9458L178.049 32.6631Z" fill="white"/>
<path d="M198.275 46.3356C194.287 44.9264 193.261 41.7959 194.38 38.6278L197.498 29.8025L201.741 31.3016L199.123 38.7126C198.313 41.0038 198.935 42.3054 201.623 43.2548C204.395 44.2343 205.764 43.5092 206.614 41.1048L209.152 33.9201L213.395 35.4192L208.388 49.5907L204.428 48.1915L205.957 43.8637L205.731 43.7837C204.524 46.0299 202.009 47.6548 198.275 46.3356Z" fill="white"/>
<path d="M212.466 57.3719L210.318 56.1722L212.308 52.6103L215.53 54.4099C216.499 54.9513 217.064 54.9234 217.648 54.4936L218.59 37.7352L223.043 40.2225L222.469 47.7709L221.842 51.4759L222.104 51.6222L224.893 49.0908L230.717 44.5093L235.09 46.9527L220.738 57.3885C217.945 59.4362 215.766 59.2154 212.466 57.3719Z" fill="white"/>
<path d="M250.897 81.071L244.495 73.7969L259.583 60.5174L265.985 67.7914C270.247 72.6332 270.127 78.1735 265.398 82.3358C260.669 86.498 255.158 85.9128 250.897 81.071ZM262.945 70.4671L259.516 66.5711L250.508 74.4992L253.937 78.3952C256.632 81.458 258.601 81.9236 262.227 78.7325C265.852 75.5415 265.641 73.5299 262.945 70.4671Z" fill="white"/>
<path d="M262.33 97.1055C258.838 91.4343 260.142 85.7698 265.481 82.4824C270.82 79.195 276.465 80.5811 279.957 86.2523C283.527 92.0512 282.208 97.6902 276.869 100.978C271.53 104.265 265.901 102.904 262.33 97.1055ZM266.009 94.8405C268.321 98.5957 270.546 99.2339 274.352 96.8903C278.159 94.5466 278.591 92.2726 276.278 88.5173C273.966 84.7621 271.788 84.2005 267.982 86.5442C264.176 88.8878 263.697 91.0852 266.009 94.8405Z" fill="white"/>
<path d="M275.548 124.546L268.523 107.065L272.281 105.555L287.517 112.171L287.823 112.048L283.517 101.331L287.275 99.8208L294.109 116.829L290.351 118.339L274.97 111.361L274.664 111.484L279.306 123.036L275.548 124.546Z" fill="white"/>
<path d="M279.872 144.511L275.902 126.093L279.862 125.24L293.76 134.336L294.082 134.267L291.649 122.976L295.608 122.123L299.47 140.041L295.511 140.895L281.53 131.417L281.208 131.487L283.831 143.657L279.872 144.511Z" fill="white"/>
<path d="M280.699 163.515L279.978 146.521L300.059 145.668L300.781 162.662L296.735 162.834L296.204 150.336L292.278 150.502L292.789 162.551L288.773 162.722L288.261 150.673L284.215 150.845L284.746 163.344L280.699 163.515Z" fill="white"/>
<path d="M279.979 171.171L280.551 166.707L300.488 169.26L299.078 180.27C298.449 185.18 295.919 187.699 292.11 187.211C288.866 186.796 287.172 184.674 287.295 180.878L287.057 180.848C286.353 182.572 285.313 183.135 283.819 183.7L278.093 185.9L278.756 180.723L284.284 178.648C285.935 178.043 286.536 177.364 286.833 175.042L287.21 172.097L279.979 171.171ZM295.899 173.209L290.573 172.527L289.738 179.044C289.468 181.157 289.941 182.185 292.024 182.452C293.988 182.703 294.794 181.839 295.065 179.726L295.899 173.209Z" fill="white"/>
<path d="M264.751 219.587L266.425 216.266C268.006 213.131 270.438 211.972 273.813 213.674L279.063 216.321L280.13 214.205L283.452 215.88L282.385 217.996L284.984 219.306L282.958 223.324L280.359 222.014L278.171 226.354L274.85 224.679L277.038 220.34L272.243 217.922C270.903 217.247 270.298 217.58 269.582 219L268.367 221.411L264.751 219.587Z" fill="white"/>
<path d="M256.29 231.634C259.34 227.51 263.852 226.555 267.663 229.374C271.522 232.228 271.907 236.804 268.856 240.928C265.806 245.053 261.318 246.025 257.459 243.17C253.648 240.352 253.239 235.759 256.29 231.634ZM259.498 234.007C257.696 236.443 257.994 238.007 260.117 239.577C262.239 241.146 263.871 241.01 265.672 238.573C267.492 236.113 267.127 234.538 265.005 232.968C262.882 231.398 261.317 231.546 259.498 234.007Z" fill="white"/>
<path d="M245.449 244.673L248.698 241.559L262.606 256.07L259.357 259.184L251.988 251.495L249.519 253.862L250.608 260.547L246.753 264.242L245.693 255.202L236.418 253.329L240.251 249.655L246.716 250.98L249.207 248.593L245.449 244.673Z" fill="white"/>
<path d="M227.308 259.215C231.459 256.41 235.67 256.533 238.66 260.957C241.348 264.934 240.236 269.343 236.135 272.115C232.059 274.87 227.905 274.563 225.267 270.661C224.965 270.214 224.796 269.857 224.561 269.401L234.701 262.547C233.309 260.7 231.859 260.485 229.448 262.114C227.236 263.609 226.852 264.702 227.575 265.77L227.742 266.019L224.014 268.539L223.829 268.265C221.998 265.556 223.356 261.887 227.308 259.215ZM234.244 269.156C236.456 267.661 236.897 266.277 235.979 264.544L229.367 269.012C230.576 270.586 232.057 270.635 234.244 269.156Z" fill="white"/>
<path d="M212.681 268.012L216.782 266.158L222.973 279.854L219.173 281.571L217.27 277.362L217.024 277.473C217.706 279.93 217.055 282.858 213.474 284.477C209.728 286.17 206.864 284.567 205.492 281.533L201.637 273.004L205.738 271.15L208.975 278.313C209.964 280.499 211.286 281.021 213.801 279.884C216.398 278.71 216.858 277.251 215.808 274.928L212.681 268.012Z" fill="white"/>
<path d="M183.166 283.449C185.527 283.248 187.638 284.694 187.869 287.414C188.101 290.134 186.265 291.916 183.904 292.117C181.512 292.321 179.432 290.872 179.201 288.152C178.969 285.432 180.775 283.652 183.166 283.449Z" fill="white"/>
</svg>
