<svg width="32" height="33" viewBox="0 0 32 33" fill="none" xmlns="http://www.w3.org/2000/svg">
<circle cx="16" cy="16.5" r="16" fill="#F9A301"/>
<g clip-path="url(#clip0_42_254)">
<path d="M21.5447 11.4132C20.5249 10.9453 19.4314 10.6005 18.288 10.4031C18.2671 10.3992 18.2463 10.4088 18.2356 10.4278C18.095 10.678 17.9392 11.0043 17.8301 11.2608C16.6003 11.0766 15.3768 11.0766 14.1722 11.2608C14.0631 10.9986 13.9017 10.678 13.7604 10.4278C13.7497 10.4094 13.7289 10.3999 13.7081 10.4031C12.5653 10.5999 11.4717 10.9446 10.4513 11.4132C10.4425 11.417 10.4349 11.4233 10.4299 11.4316C8.35562 14.5305 7.78737 17.5532 8.06612 20.5385C8.06737 20.5531 8.07559 20.567 8.08693 20.5759C9.45546 21.581 10.7811 22.1911 12.0822 22.5955C12.103 22.6019 12.1251 22.5943 12.1383 22.5771C12.4461 22.1568 12.7204 21.7137 12.9556 21.2476C12.9695 21.2204 12.9562 21.188 12.9279 21.1772C12.4927 21.0121 12.0784 20.8108 11.6798 20.5823C11.6482 20.5639 11.6457 20.5188 11.6747 20.4972C11.7586 20.4344 11.8425 20.369 11.9226 20.3029C11.9371 20.2909 11.9573 20.2883 11.9743 20.2959C14.5928 21.4915 17.4277 21.4915 20.0153 20.2959C20.0323 20.2877 20.0525 20.2902 20.0676 20.3023C20.1477 20.3683 20.2316 20.4343 20.3161 20.4972C20.3451 20.5188 20.3432 20.5639 20.3117 20.5823C19.9131 20.8153 19.4988 21.0121 19.063 21.1765C19.0346 21.1873 19.022 21.2203 19.0359 21.2476C19.2762 21.713 19.5505 22.1561 19.8526 22.5765C19.8652 22.5942 19.8879 22.6019 19.9087 22.5955C21.2161 22.1911 22.5417 21.5809 23.9103 20.5759C23.9223 20.567 23.9298 20.5537 23.9311 20.5391C24.2647 17.0878 23.3723 14.0898 21.5655 11.4322C21.5611 11.4233 21.5535 11.417 21.5447 11.4132ZM13.3467 18.7208C12.5584 18.7208 11.9088 17.997 11.9088 17.1081C11.9088 16.2193 12.5457 15.4955 13.3467 15.4955C14.1539 15.4955 14.7972 16.2256 14.7846 17.1081C14.7846 17.997 14.1476 18.7208 13.3467 18.7208ZM18.6632 18.7208C17.8749 18.7208 17.2253 17.997 17.2253 17.1081C17.2253 16.2193 17.8622 15.4955 18.6632 15.4955C19.4704 15.4955 20.1137 16.2256 20.1011 17.1081C20.1011 17.997 19.4705 18.7208 18.6632 18.7208Z" fill="#29304B"/>
</g>
<defs>
<clipPath id="clip0_42_254">
<rect width="16" height="16" fill="white" transform="translate(8 8.5)"/>
</clipPath>
</defs>
</svg>
