<svg width="32" height="32" viewBox="0 0 32 32" fill="none" xmlns="http://www.w3.org/2000/svg">
<path d="M30.75 15H1.25C0.559625 15 0 15.5596 0 16.25C0 16.9404 0.559625 17.5 1.25 17.5H30.75C31.4404 17.5 32 16.9404 32 16.25C32 15.5596 31.4404 15 30.75 15Z" fill="white"/>
<path d="M30.75 25H17.25C16.5596 25 16 25.5596 16 26.25C16 26.9404 16.5596 27.5 17.25 27.5H30.75C31.4404 27.5 32 26.9404 32 26.25C32 25.5596 31.4404 25 30.75 25Z" fill="white"/>
<path d="M14.75 5H1.25C0.559625 5 0 5.55963 0 6.25C0 6.94037 0.559625 7.5 1.25 7.5H14.75C15.4404 7.5 16 6.94037 16 6.25C16 5.55963 15.4404 5 14.75 5Z" fill="white"/>
</svg>
