<svg width="80" height="81" viewBox="0 0 80 81" fill="none" xmlns="http://www.w3.org/2000/svg">
<g clip-path="url(#clip0_78_16515)">
<path d="M49.7512 66.1795C45.3723 66.1795 41.8098 62.6172 41.8098 58.2384V57.5445H32.508C31.8606 57.5445 31.3361 57.0198 31.3361 56.3726C31.3361 55.7255 31.8606 55.2008 32.508 55.2008H42.9817C43.6291 55.2008 44.1536 55.7255 44.1536 56.3726V58.2384C44.1536 61.3248 46.6645 63.8358 49.7509 63.8358C51.0067 63.8358 52.2419 63.4037 53.2289 62.6191L75.5438 44.8784C76.8863 43.8109 77.6562 42.2148 77.6562 40.4995C77.6561 38.7844 76.8859 37.1884 75.5434 36.1209L53.2289 18.3808C52.242 17.5962 51.007 17.1641 49.7512 17.1641C46.6647 17.1641 44.1536 19.6742 44.1536 22.7595V24.6272C44.1536 25.2744 43.6291 25.7991 42.9817 25.7991L8.22734 25.7991C4.98312 25.7992 2.34375 28.4386 2.34375 31.6828L2.34375 49.317C2.34375 52.5612 4.98312 55.2006 8.22734 55.2006L27.8203 55.2006C28.4677 55.2006 28.9922 55.7253 28.9922 56.3725C28.9922 57.0197 28.4677 57.5444 27.8203 57.5444L8.22734 57.5444C3.69078 57.5445 0 53.8537 0 49.317L0 31.6828C0 27.1462 3.69078 23.4555 8.22734 23.4555L41.8098 23.4555V22.7597C41.8098 18.382 45.3723 14.8205 49.7512 14.8205C51.5345 14.8205 53.2877 15.4334 54.6875 16.5462L77.0017 34.2866C78.9069 35.8011 79.9998 38.0658 80 40.4997C80 42.9337 78.9075 45.1984 77.0023 46.7131L54.6873 64.4537C53.2875 65.5667 51.5344 66.1795 49.7512 66.1795Z" fill="#527087"/>
<path d="M49.7511 60.1903C49.4634 60.1903 49.1737 60.1256 48.9014 59.9944C48.222 59.6666 47.8 58.9945 47.8 58.2403V51.5541L9.31594 51.5541C7.48219 51.5541 5.99031 50.0622 5.99031 48.2284L5.99031 32.7714C5.99031 30.9377 7.48219 29.4458 9.31594 29.4458H17.3902C18.0375 29.4458 18.562 29.9705 18.562 30.6177C18.562 31.2648 18.0375 31.7895 17.3902 31.7895H9.31594C8.77453 31.7895 8.33406 32.23 8.33406 32.7714L8.33406 48.2284C8.33406 48.7698 8.77453 49.2103 9.31594 49.2103L48.1964 49.2103C49.2703 49.2103 50.1439 50.0839 50.1439 51.1578V57.4189L71.4255 40.5L50.1439 23.5809V29.842C50.1439 30.9158 49.2703 31.7895 48.1964 31.7895L22.0777 31.7895C21.4303 31.7895 20.9058 31.2648 20.9058 30.6177C20.9058 29.9705 21.4303 29.4458 22.0777 29.4458L47.8002 29.4458V22.7597C47.8002 22.0055 48.2222 21.3333 48.9014 21.0056C49.5808 20.6778 50.3694 20.7659 50.9597 21.2353L73.2742 38.9755C73.7417 39.3473 74.0097 39.903 74.0097 40.5C74.0097 41.097 73.7417 41.6527 73.2744 42.0242L50.9595 59.7647C50.6059 60.0459 50.1809 60.1902 49.7511 60.1903Z" fill="#527087"/>
</g>
<defs>
<clipPath id="clip0_78_16515">
<rect width="80" height="80" fill="white" transform="translate(0 0.5)"/>
</clipPath>
</defs>
</svg>
