<svg width="64" height="64" viewBox="0 0 64 64" fill="none" xmlns="http://www.w3.org/2000/svg">
<circle cx="32" cy="32" r="32" fill="#F9A301"/>
<g clip-path="url(#clip0_30_890)">
<path d="M50.4083 33.9391C50.7351 33.9391 51 33.6742 51 33.3474V32.4303C51 31.3823 50.2532 30.5059 49.2642 30.3041V26.4342C49.2642 24.3679 47.5833 22.6866 45.5169 22.6866H39.219C38.9178 19.1561 35.9484 16.375 32.3412 16.375C31.2966 16.375 30.2926 16.6027 29.3572 17.0516C29.0624 17.1932 28.9385 17.5466 29.0798 17.8411C29.2211 18.1359 29.5745 18.2598 29.8693 18.1185C30.6436 17.7471 31.4755 17.5585 32.3412 17.5585C35.2957 17.5585 37.7337 19.8098 38.0306 22.6866H31.5524C31.0085 22.6866 30.5663 22.2441 30.5663 21.7003C30.5663 21.1565 31.0085 20.7143 31.5524 20.7143H33.1304C33.6743 20.7143 34.1165 21.1568 34.1165 21.7003C34.1165 22.0272 34.3813 22.2921 34.7082 22.2921C35.035 22.2921 35.2999 22.0272 35.2999 21.7003C35.2999 20.504 34.3264 19.5308 33.1304 19.5308H32.933V19.0181C32.933 18.6913 32.6681 18.4264 32.3412 18.4264C32.0144 18.4264 31.7495 18.6913 31.7495 19.0181V19.5308H31.5524C30.3561 19.5308 29.3829 20.5043 29.3829 21.7003C29.3829 22.0555 29.4689 22.3906 29.6209 22.6866H26.6534C26.7697 21.5728 27.2106 20.5089 27.9263 19.6416C28.1341 19.3895 28.0984 19.0166 27.8463 18.8085C27.5942 18.6006 27.2213 18.6364 27.0132 18.8884C26.1233 19.9675 25.5837 21.2981 25.4635 22.6866H17.9034C17.5765 22.6866 17.3116 22.9515 17.3116 23.2784V29.3929H16.2185C15.9487 28.2195 14.8968 27.3415 13.6428 27.3415C12.1856 27.3415 11 28.5271 11 29.9843C11 31.4418 12.1856 32.6274 13.6428 32.6274C14.8968 32.6274 15.9487 31.7495 16.2185 30.5761H17.3116V37.8234C16.1382 38.0928 15.2603 39.1448 15.2603 40.3987C15.2603 41.6527 16.1382 42.7047 17.3116 42.9741V47.1047C17.3116 47.4315 17.5765 47.6964 17.9034 47.6964H45.5169C47.5833 47.6964 49.2642 46.0152 49.2642 43.9489V40.0789C50.2532 39.8772 51 39.0007 51 37.9531V36.0988C51 35.772 50.7351 35.5071 50.4083 35.5071C50.0814 35.5071 49.8165 35.772 49.8165 36.0988V37.9531C49.8165 38.4969 49.374 38.9391 48.8305 38.9391H42.3611C40.9469 38.9391 39.797 37.7889 39.797 36.375V34.0081C39.797 32.5942 40.9472 31.444 42.3611 31.444H48.8305C49.3743 31.444 49.8165 31.8865 49.8165 32.4303V33.3474C49.8165 33.6742 50.0814 33.9391 50.4083 33.9391ZM13.6428 31.444C12.8381 31.444 12.1835 30.7894 12.1835 29.9843C12.1835 29.1796 12.8381 28.525 13.6428 28.525C14.4479 28.525 15.1025 29.1796 15.1025 29.9843C15.1025 30.7894 14.4479 31.444 13.6428 31.444ZM31.5524 23.8701H45.5166C46.9305 23.8701 48.0807 25.0203 48.0807 26.4342V30.2605H46.1083V27.2231C46.1083 26.4617 45.4891 25.8425 44.7277 25.8425H18.4951V23.8698H31.5524V23.8701ZM25.2914 34.5998C25.0219 33.4267 23.97 32.5487 22.716 32.5487C21.2585 32.5487 20.0729 33.7343 20.0729 35.1915C20.0729 36.6487 21.2585 37.8347 22.716 37.8347C23.97 37.8347 25.0219 36.9567 25.2914 35.7833H30.6686L27.2546 39.807H20.4788C20.2529 38.824 19.4781 38.0492 18.4951 37.8234V30.5761H24.2565L27.6705 34.5998H25.2914ZM24.1757 35.1915C24.1757 35.9963 23.5208 36.6509 22.716 36.6509C21.9113 36.6509 21.2563 35.9963 21.2563 35.1915C21.2563 34.3868 21.9113 33.7319 22.716 33.7319C23.5208 33.7319 24.1757 34.3868 24.1757 35.1915ZM16.4437 40.3987C16.4437 39.5937 17.0986 38.9391 17.9034 38.9391C18.7081 38.9391 19.3627 39.5937 19.3627 40.3987C19.3627 41.2035 18.7081 41.8581 17.9034 41.8581C17.0986 41.8581 16.4437 41.2035 16.4437 40.3987ZM38.6135 34.0081V36.375C38.6135 38.4413 40.2947 40.1226 42.3611 40.1226H44.9252V43.16C44.9252 43.2689 44.8367 43.3571 44.7277 43.3571H28.4408C28.114 43.3571 27.8491 43.6223 27.8491 43.9489C27.8491 44.2757 28.114 44.5406 28.4408 44.5406H44.7277C45.4891 44.5406 46.1086 43.9214 46.1086 43.16V40.1226H48.081V43.9489C48.081 45.3627 46.9308 46.5129 45.5169 46.5129H18.4951V44.5406H25.6613C25.9881 44.5406 26.253 44.2757 26.253 43.9489C26.253 43.622 25.9881 43.3571 25.6613 43.3571H18.4951V42.9738C19.4781 42.748 20.2529 41.9731 20.4788 40.9902H27.5286C27.7023 40.9902 27.8674 40.9139 27.9797 40.7814L32.2207 35.7833H35.1815C35.5084 35.7833 35.7733 35.5181 35.7733 35.1915C35.7733 34.8647 35.5084 34.5998 35.1815 34.5998H29.2227L24.9816 29.6016C24.8693 29.4689 24.7042 29.3926 24.5306 29.3926H18.4951V27.0256H44.7277C44.8367 27.0256 44.9252 27.1141 44.9252 27.2231V30.2605H42.3611C40.2944 30.2605 38.6135 31.9417 38.6135 34.0081Z" fill="#29304B"/>
<path d="M43.6233 33.0217C42.427 33.0217 41.4538 33.9952 41.4538 35.1915C41.4538 36.3878 42.427 37.361 43.6233 37.361C44.8196 37.361 45.7928 36.3878 45.7928 35.1915C45.7928 33.9952 44.8196 33.0217 43.6233 33.0217ZM43.6233 36.1779C43.0795 36.1779 42.637 35.7354 42.637 35.1915C42.637 34.6477 43.0795 34.2055 43.6233 34.2055C44.1671 34.2055 44.6093 34.6477 44.6093 35.1915C44.6093 35.7354 44.1671 36.1779 43.6233 36.1779Z" fill="#29304B"/>
</g>
<defs>
<clipPath id="clip0_30_890">
<rect width="40" height="40" fill="white" transform="translate(11 12)"/>
</clipPath>
</defs>
</svg>
