<svg width="32" height="33" viewBox="0 0 32 33" fill="none" xmlns="http://www.w3.org/2000/svg">
<circle cx="16" cy="16.5" r="16" fill="#F9A301"/>
<g clip-path="url(#clip0_42_255)">
<path d="M23.6867 9.81086C23.4293 9.57502 23.0634 9.49643 22.7319 9.60571L8.66348 14.2432C8.28007 14.3696 8.02007 14.7119 8.0011 15.1151C7.98216 15.5183 8.20888 15.8835 8.57869 16.0453L12.0579 17.5676C12.0749 17.6463 13.0737 22.2787 13.1076 22.4362C13.1512 22.6384 13.2539 22.8186 13.4714 22.874C13.6913 22.93 13.8467 22.8098 14.0109 22.6869C14.1022 22.6186 16.5927 20.7536 16.5927 20.7536L19.6111 23.2236C19.7869 23.3676 20.0018 23.4426 20.2209 23.4426C20.3252 23.4426 20.4305 23.4256 20.533 23.3908C20.8507 23.2831 21.0862 23.0238 21.1629 22.6973L23.9744 10.7441C24.0543 10.4043 23.9441 10.0467 23.6867 9.81086ZM14.2358 18.4399C14.234 18.4439 14.2324 18.4485 14.2308 18.454L13.6488 20.4874L12.9993 17.4751L17.4654 14.9936L14.3429 18.2586C14.2937 18.31 14.2575 18.3722 14.2358 18.4399ZM14.4205 21.2063L14.6848 20.2827L14.9377 19.3993L15.8436 20.1406L14.4205 21.2063ZM23.0596 10.5289L20.2482 22.4821C20.2468 22.4881 20.2449 22.4962 20.2312 22.5009C20.2176 22.5055 20.2109 22.5002 20.2063 22.4964L16.9034 19.7936C16.9033 19.7936 16.9033 19.7935 16.9032 19.7934L15.3729 18.5411L20.2892 13.4006C20.4498 13.2327 20.4635 12.9726 20.3216 12.7887C20.1795 12.6048 19.9245 12.5523 19.7214 12.6651L12.4417 16.7098L8.95538 15.1844C8.94476 15.1798 8.93891 15.1772 8.93976 15.1592C8.9406 15.1413 8.94666 15.1393 8.95766 15.1356L23.026 10.4981C23.0329 10.4959 23.0405 10.4934 23.0519 10.5037C23.0632 10.5141 23.0613 10.5219 23.0596 10.5289Z" fill="#29304B"/>
</g>
<defs>
<clipPath id="clip0_42_255">
<rect width="16" height="16" fill="white" transform="translate(8 8.5)"/>
</clipPath>
</defs>
</svg>
