<svg width="104" height="104" viewBox="0 0 104 104" fill="none" xmlns="http://www.w3.org/2000/svg">
<g clip-path="url(#clip0_52_58)">
<path d="M18.6167 64.6766C18.6167 58.984 23.2477 54.3528 28.9401 54.3528L29.8421 54.3528L29.8421 42.2604C29.8421 41.4188 30.5242 40.7369 31.3656 40.7369C32.2069 40.7369 32.889 41.4188 32.889 42.2604L32.889 55.8762C32.889 56.7178 32.2069 57.3997 31.3656 57.3997L28.9401 57.3997C24.9277 57.3997 21.6635 60.6639 21.6635 64.6762C21.6635 66.3087 22.2252 67.9144 23.2453 69.1976L46.3081 98.2069C47.6958 99.9521 49.7707 100.953 52.0006 100.953C54.2303 100.953 56.3051 99.9517 57.6928 98.2065L80.755 69.1976C81.7749 67.9146 82.3367 66.3091 82.3367 64.6766C82.3367 60.6641 79.0735 57.3997 75.0626 57.3997L72.6347 57.3997C71.7933 57.3997 71.1113 56.7178 71.1113 55.8762L71.1113 10.6955C71.111 6.47806 67.6799 3.04687 63.4624 3.04687L40.5379 3.04687C36.3204 3.04687 32.8892 6.47806 32.8892 10.6955L32.8892 36.1664C32.8892 37.008 32.2071 37.6898 31.3658 37.6898C30.5244 37.6898 29.8423 37.008 29.8423 36.1664L29.8423 10.6955C29.8421 4.79801 34.6402 -2.21806e-06 40.5379 -1.96026e-06L63.4624 -9.58199e-07C69.3599 -7.0041e-07 74.1579 4.79801 74.1579 10.6955L74.1579 54.3528L75.0624 54.3528C80.7534 54.3528 85.3834 58.984 85.3834 64.6766C85.3834 66.9949 84.5866 69.274 83.1399 71.0937L60.0775 100.102C58.1086 102.579 55.1645 104 52.0004 104C48.8362 104 45.8921 102.58 43.923 100.103L20.8602 71.0935C19.4133 69.2737 18.6167 66.9947 18.6167 64.6766Z" fill="white"/>
<path d="M26.4026 64.6764C26.4026 64.3024 26.4867 63.9258 26.6574 63.5718C27.0835 62.6886 27.9572 62.14 28.9377 62.14L37.6298 62.14L37.6298 12.1107C37.6298 9.72679 39.5692 7.78735 41.9531 7.78735L62.0472 7.78735C64.4311 7.78735 66.3705 9.72679 66.3705 12.1107L66.3705 22.6072C66.3705 23.4487 65.6884 24.1306 64.8471 24.1306C64.0058 24.1306 63.3237 23.4487 63.3237 22.6072L63.3237 12.1107C63.3237 11.4068 62.7511 10.8342 62.0472 10.8342L41.9531 10.8342C41.2493 10.8342 40.6767 11.4068 40.6767 12.1107L40.6766 62.6553C40.6766 64.0514 39.541 65.187 38.1449 65.187L30.0055 65.187L52.0001 92.8531L73.9948 65.187L65.8554 65.187C64.4595 65.187 63.3237 64.0514 63.3237 62.6553L63.3237 28.7009C63.3237 27.8594 64.0058 27.1775 64.8471 27.1775C65.6884 27.1775 66.3705 27.8594 66.3705 28.7009L66.3705 62.1402L75.0625 62.1402C76.0429 62.1402 76.9168 62.6888 77.3427 63.5718C77.7689 64.455 77.6543 65.4801 77.0441 66.2475L53.9819 95.2564C53.4985 95.8642 52.7762 96.2125 52.0001 96.2125C51.2239 96.2125 50.5016 95.8642 50.0186 95.2566L26.956 66.2473C26.5903 65.7877 26.4028 65.2352 26.4026 64.6764Z" fill="white"/>
</g>
<defs>
<clipPath id="clip0_52_58">
<rect width="104" height="104" fill="white" transform="translate(104) rotate(90)"/>
</clipPath>
</defs>
</svg>
